<svg width="440" height="120" viewBox="0 0 440 120" fill="none" xmlns="http://www.w3.org/2000/svg">
  <title>Veritas logo lockup</title>
  <rect width="440" height="120" rx="18" fill="#0B0E14"/>
  <g transform="translate(10 10)">
    <g stroke-width="4" stroke-linecap="round">
    <line x1="50" y1="30" x2="50" y2="10" stroke="#5B8DEF"/>
    <line x1="70" y1="50" x2="90" y2="50" stroke="#5B8DEF"/>
    <line x1="50" y1="70" x2="50" y2="90" stroke="#5B8DEF"/>
    <line x1="30" y1="50" x2="10" y2="50" stroke="#5B8DEF"/>
    <line x1="60" y1="32.68" x2="70" y2="15.36" stroke="#E6EAF2" opacity="0.85"/>
    <line x1="67.32" y1="40" x2="84.64" y2="30" stroke="#E6EAF2" opacity="0.85"/>
    <line x1="67.32" y1="60" x2="84.64" y2="70" stroke="#E6EAF2" opacity="0.85"/>
    <line x1="60" y1="67.32" x2="70" y2="84.64" stroke="#E6EAF2" opacity="0.85"/>
    <line x1="40" y1="67.32" x2="30" y2="84.64" stroke="#E6EAF2" opacity="0.85"/>
    <line x1="32.68" y1="60" x2="15.36" y2="70" stroke="#E6EAF2" opacity="0.85"/>
    <line x1="32.68" y1="40" x2="15.36" y2="30" stroke="#E6EAF2" opacity="0.85"/>
    <line x1="40" y1="32.68" x2="30" y2="15.36" stroke="#E6EAF2" opacity="0.85"/>
    </g>
    <circle cx="50" cy="50" r="10" fill="#3DDC97"/>
  </g>
  <text x="132" y="62" font-family="Inter, system-ui, sans-serif" font-size="44" font-weight="600" letter-spacing="-1.6" fill="#E6EAF2">veritas</text>
  <text x="134" y="86" font-family="JetBrains Mono, monospace" font-size="11.5" letter-spacing="0.5" fill="#8A93A6">get paid for the truth</text>
</svg>
